<?xml version="1.0" encoding="utf-8"?>
<!-- Generator: Adobe Illustrator 19.1.1, SVG Export Plug-In . SVG Version: 6.00 Build 0)  -->
<svg version="1.1" id="Layer_1" xmlns="http://www.w3.org/2000/svg" xmlns:xlink="http://www.w3.org/1999/xlink" x="0px" y="0px"
	 viewBox="0 0 24 24" style="enable-background:new 0 0 24 24;" xml:space="preserve">
<style type="text/css">
	.st0{fill:#FA742C;}
	.st1{fill:none;}
</style>
<title>live_960</title>
<g id="Layer_1_1_">
	<path class="st0" d="M13.1,4.2V3.5h1.3v-2H9.7v2H11v0.7c-4.2,0.6-7.1,4.5-6.5,8.7c0,0.3,0.1,0.5,0.2,0.8h1.8
		c-1-3.1,0.6-6.5,3.7-7.5s6.5,0.6,7.5,3.7c0.4,1.2,0.4,2.6,0,3.8h1.8c1-4.1-1.5-8.3-5.6-9.3C13.6,4.3,13.3,4.3,13.1,4.2z"/>
	<polygon class="st0" points="13,12.7 12.6,7.2 11.6,7.2 11.1,12.7 12,13.6 	"/>
	<path class="st0" d="M6.8,15.4H5.6v4.8H8v1.2H5.6v1.2h3.6v-7.1L6.8,15.4L6.8,15.4z M8,18.9H6.8v-2.4H8V18.9z"/>
	<path class="st0" d="M10.4,15.4v7.1H14v-4.8h-2.4v-1.2H14v-1.2L10.4,15.4L10.4,15.4z M12.7,18.9v2.4h-1.2v-2.4H12.7z"/>
	<path class="st0" d="M15.1,15.4v7.1h3.6v-7.1H15.1z M17.5,21.3h-1.2v-4.8h1.2V21.3z"/>
</g>
<g id="Layer_2">
	<path class="st1" d="M0,0h24v24H0V0z"/>
</g>
</svg>
